<?xml version="1.0"?>
<svg xmlns="http://www.w3.org/2000/svg" xmlns:xlink="http://www.w3.org/1999/xlink" xmlns:svgjs="http://svgjs.com/svgjs" version="1.1" width="512" height="512" x="0" y="0" viewBox="0 0 512.004 512.004" style="enable-background:new 0 0 512 512" xml:space="preserve" class=""><g>
<g xmlns="http://www.w3.org/2000/svg">
	<g>
		<path d="M376.877,110.779c-3.912-3.899-10.243-3.888-14.142,0.023l-0.435,0.437c-3.898,3.912-3.888,10.244,0.024,14.143    c1.952,1.945,4.505,2.917,7.059,2.917c2.565,0,5.129-0.98,7.083-2.94l0.435-0.437C380.799,121.01,380.789,114.678,376.877,110.779    z" fill="#eee4d1" data-original="#000000" style=""/>
	</g>
</g>
<g xmlns="http://www.w3.org/2000/svg">
	<g>
		<path d="M426.573,174.618c38.171-38.172,67.527-85.208,84.894-136.024c1.233-3.609,0.306-7.607-2.392-10.305    s-6.695-3.624-10.305-2.392c-40.082,13.699-77.088,34.325-109.991,61.308c-4.271,3.502-4.894,9.803-1.392,14.073    c3.501,4.271,9.803,4.896,14.073,1.392c25.37-20.804,53.32-37.603,83.323-50.102c-33.859,80.978-99.282,146.4-180.26,180.26    c12.184-29.242,28.462-56.553,48.549-81.416c3.471-4.296,2.802-10.592-1.494-14.063c-4.297-3.473-10.593-2.803-14.063,1.494    c-26.179,32.401-46.252,68.729-59.664,107.972c-0.141,0.413-0.246,0.832-0.332,1.253c-3.313,3.245-6.637,6.477-9.975,9.693    c9.83-30.114,14.947-61.943,14.947-93.758c0-44.839-10.152-89.71-29.358-129.763c-1.664-3.469-5.17-5.676-9.017-5.676    s-7.354,2.207-9.017,5.676c-19.207,40.053-29.358,84.924-29.358,129.763c0,43.393,9.508,86.814,27.53,125.871    c-19.366,17.641-39.13,34.813-59.264,51.499c10.368-32.165,15.764-66.116,15.764-100.053c0-48.395-10.957-96.822-31.686-140.05    c-1.664-3.469-5.17-5.676-9.017-5.676c-3.847,0-7.354,2.207-9.017,5.676c-20.729,43.228-31.686,91.655-31.686,140.05    c0,44.968,9.466,89.963,27.437,130.79c-20.77,16.209-41.903,31.906-63.369,47.074c8.761-27.32,13.328-56.138,13.328-84.946    c0-41.277-9.346-82.585-27.028-119.457c-1.663-3.469-5.169-5.676-9.017-5.676c-3.848,0-7.354,2.207-9.017,5.676    c-17.682,36.872-27.028,78.18-27.028,119.457c0,37.697,7.818,75.407,22.638,109.753c-10.484,6.997-21.037,13.876-31.666,20.621    c-4.663,2.959-6.044,9.138-3.085,13.801c1.904,3.002,5.143,4.644,8.453,4.644c1.833,0,3.687-0.503,5.349-1.558    c10.951-6.949,21.823-14.04,32.622-21.254c36.528,17.264,77.323,26.398,118.095,26.398c41.277,0,82.585-9.346,119.458-27.027    c3.469-1.663,5.676-5.169,5.676-9.017c0-3.848-2.207-7.354-5.676-9.017c-36.873-17.682-78.18-27.027-119.458-27.027    c-21.203,0-42.41,2.484-63.025,7.279c15.257-11.104,30.341-22.473,45.239-34.103c39.145,18.124,82.695,27.689,126.214,27.689    c44.838,0,89.709-10.152,129.762-29.359c3.469-1.663,5.676-5.169,5.676-9.017c0-3.848-2.207-7.354-5.676-9.017    c-40.052-19.207-84.923-29.359-129.762-29.359c-26.497,0-53.005,3.548-78.524,10.412c15.977-13.432,31.719-27.168,47.21-41.2    c27.27,12.529,56.272,20.859,86.291,24.761c0.438,0.057,0.872,0.084,1.302,0.084c4.949,0,9.249-3.673,9.904-8.712    c0.712-5.477-3.151-10.494-8.627-11.206c-21.907-2.847-43.234-8.215-63.654-16.008c64.052-24.355,136.169-24.355,200.221,0    c-20.1,7.67-41.081,12.992-62.629,15.873c-5.474,0.732-9.318,5.764-8.586,11.237c0.732,5.475,5.765,9.308,11.237,8.587    c31.26-4.181,61.416-13.16,89.629-26.689c3.469-1.663,5.676-5.169,5.676-9.017c0-3.848-2.207-7.354-5.676-9.017    c-40.052-19.207-84.923-29.358-129.762-29.358c-29.012,0-58.037,4.256-85.762,12.459c4.633-4.474,9.246-8.97,13.83-13.498    C345.088,239.792,389.919,211.273,426.573,174.618z M49.718,423.768c-21.252-57.397-21.252-121.658,0-179.054    C70.97,302.109,70.97,366.37,49.718,423.768z M255.606,450.602c-57.397,21.252-121.658,21.252-179.054,0    C133.948,429.35,198.21,429.35,255.606,450.602z M149.07,351.902c-27.436-70.636-27.436-150.526,0-221.163    C176.505,201.376,176.505,281.266,149.07,351.902z M374.595,377.047c-64.043,24.348-136.133,24.348-200.176,0    C238.463,352.698,310.552,352.698,374.595,377.047z M244.118,264.091c-24.346-64.037-24.343-136.136,0-200.175    C268.461,127.956,268.464,200.055,244.118,264.091z" fill="#eee4d1" data-original="#000000" style=""/>
	</g>
</g>
<g xmlns="http://www.w3.org/2000/svg">
	<g>
		<path d="M371.948,315.147l-0.417,0.005c-5.522,0.077-9.937,4.617-9.859,10.14c0.077,5.475,4.539,9.859,9.996,9.859    c0.047,0,0.096,0,0.143-0.001l0.417-0.005c5.522-0.077,9.937-4.616,9.859-10.139S377.464,315.039,371.948,315.147z" fill="#eee4d1" data-original="#000000" style=""/>
	</g>
</g>
<g xmlns="http://www.w3.org/2000/svg">
</g>
<g xmlns="http://www.w3.org/2000/svg">
</g>
<g xmlns="http://www.w3.org/2000/svg">
</g>
<g xmlns="http://www.w3.org/2000/svg">
</g>
<g xmlns="http://www.w3.org/2000/svg">
</g>
<g xmlns="http://www.w3.org/2000/svg">
</g>
<g xmlns="http://www.w3.org/2000/svg">
</g>
<g xmlns="http://www.w3.org/2000/svg">
</g>
<g xmlns="http://www.w3.org/2000/svg">
</g>
<g xmlns="http://www.w3.org/2000/svg">
</g>
<g xmlns="http://www.w3.org/2000/svg">
</g>
<g xmlns="http://www.w3.org/2000/svg">
</g>
<g xmlns="http://www.w3.org/2000/svg">
</g>
<g xmlns="http://www.w3.org/2000/svg">
</g>
<g xmlns="http://www.w3.org/2000/svg">
</g>
</g></svg>
