<?xml version="1.0" encoding="utf-8"?>
<!-- Generator: Adobe Illustrator 24.1.1, SVG Export Plug-In . SVG Version: 6.00 Build 0)  -->
<svg version="1.1" id="Layer_1" xmlns="http://www.w3.org/2000/svg" xmlns:xlink="http://www.w3.org/1999/xlink" x="0px" y="0px"
	 viewBox="0 0 125 50" style="enable-background:new 0 0 125 50;" xml:space="preserve">
<style type="text/css">
	.st0{fill:#FFFFFF;}
</style>
<rect x="99.9" y="11" class="st0" width="24.9" height="24.9"/>
<path d="M105.4,14.9v17.3h8.5c2.4,0,3.8-0.4,4.8-1.3c1.3-1.1,1.9-3.1,1.9-7.4s-0.6-6.3-1.9-7.4c-1-0.9-2.4-1.3-4.8-1.3H105.4z"/>
<path class="st0" d="M117,23.5c0,3.8-0.3,4.6-1,5.1c-0.5,0.4-1.1,0.5-2.4,0.5h-4.8V17.8h4.8c1.3,0,1.9,0,2.4,0.5
	C116.8,18.9,117,19.8,117,23.5z"/>
<polygon class="st0" points="79.6,17.8 79.6,14.9 94.3,14.9 94.3,20.4 91.2,20.4 91.2,17.8 85.2,17.8 85.2,21.9 89.9,21.9 
	89.9,24.6 85.2,24.6 85.2,29.3 91.3,29.3 91.3,26.3 94.4,26.3 94.4,32.1 79.6,32.1 79.6,29.3 81.9,29.3 81.9,17.8 "/>
<polygon class="st0" points="74.9,35.9 49.9,35.9 49.9,11 74.9,11 74.9,35.9 "/>
<path d="M66.2,27.6c0,1.9,0.1,3.3,0.4,4.4h3.4c-0.1-0.9-0.3-2.5-0.3-4.6c-0.1-2.5-0.9-2.9-2.6-3.3c2-0.4,2.9-1.3,2.9-4.4
	c0-2.5-0.4-3.5-1.1-4.1c-0.5-0.5-1.4-0.8-2.8-0.8H55.6v17.3h3.5v-6.8h4.9c1,0,1.4,0.1,1.8,0.4S66.2,26.4,66.2,27.6z"/>
<path class="st0" d="M59.1,22.6v-4.8h5.6c0.8,0,1,0.1,1.1,0.3c0.3,0.3,0.5,0.6,0.5,2.1s-0.3,2-0.5,2.3c-0.1,0.1-0.4,0.3-1.1,0.3
	L59.1,22.6z"/>
<polygon class="st0" points="43.4,29.3 43.4,32.1 31.6,32.1 31.6,29.3 35.8,29.3 35.8,17.8 31.6,17.8 31.6,14.9 43.4,14.9 
	43.4,17.8 39.2,17.8 39.2,29.3 "/>
<polygon class="st0" points="25.1,35.9 0.1,35.9 0.1,11 25.1,11 25.1,35.9 "/>
<polygon points="14.3,29.2 14.3,32.1 11,32.1 10.9,29.2 10.9,29.2 10.9,17.7 6.7,17.7 6.7,14.8 18.6,14.8 18.6,17.7 14.3,17.7 
	14.3,29.2 "/>
</svg>
